<svg xmlns="http://www.w3.org/2000/svg" xmlns:xlink="http://www.w3.org/1999/xlink" xmlns:inkscape="http://www.inkscape.org/namespaces/inkscape" version="1.1" width="290" height="146" viewBox="0 0 290 146">
<g inkscape:groupmode="layer" inkscape:label="Layer 1">
<path transform="matrix(1,0,0,-1,1,145)" d="M217.0247 60.5378C214.1501 60.5378 212.0513 62.6973 212.0513 65.6062 212.0513 68.5151 214.1501 70.6748 217.0247 70.6748 219.8988 70.6748 221.9522 68.5151 221.9522 65.6062 221.9522 62.6973 219.8988 60.5378 217.0247 60.5378ZM217.0247 54.0147C224.4158 54.0147 229.754 58.951 229.754 65.6062 229.754 72.2616 224.4158 77.1979 217.0247 77.1979 209.6328 77.1979 204.2949 72.2616 204.2949 65.6062 204.2949 58.951 209.6328 54.0147 217.0247 54.0147ZM187.3219 62.0362C184.5386 62.0362 182.5311 64.0638 182.5311 66.8404 182.5311 69.6169 184.5386 71.6006 187.3219 71.6006 190.1506 71.6006 192.1584 69.6169 192.1584 66.7962 192.1584 64.0638 190.1506 62.0362 187.3219 62.0362ZM201.7397 76.4487C200.7357 76.9334 199.3215 77.1979 198.2721 77.1979 196.0821 77.1979 193.9377 76.4487 192.8883 74.4653 190.9721 76.1403 188.4623 77.1979 185.5423 77.1979 179.3829 77.1979 174.7293 72.7903 174.7293 66.8404 174.7293 60.8462 179.3829 56.4386 185.4967 56.4386 187.8233 56.4386 189.9224 57.1 191.6107 58.2018V56.0863C191.6107 53.1332 188.873 51.8547 186.044 51.8547 183.1697 51.8547 180.752 53.2216 179.5198 54.3234 178.3791 55.2487 177.4667 54.9845 176.7824 54.2347L175.322 52.5158C174.3639 51.4585 174.6377 50.5329 175.4133 49.8277 177.5577 47.8001 181.1169 46.0814 185.953 46.0814 193.2075 46.0814 198.8195 49.7395 198.8195 57.2321V69.8817C198.8195 70.2782 199.002 70.4988 199.2759 70.4988 199.732 70.4988 200.3253 70.1456 200.7816 70.1016 201.1467 70.0577 201.6938 70.234 201.9677 71.3358L202.6522 74.245C202.9258 75.3908 202.6979 75.9634 201.7397 76.4487" fill="#7fcf4f"/>
<path transform="matrix(1,0,0,-1,1,145)" d="M165.7349 86.9445C165.7349 86.9445 168.7884 98.1139 179.5028 97.9163 181.7697 87.9877 174.2173 81.5604 167.2744 81.1196Z" fill="#735433"/>
<path transform="matrix(1,0,0,-1,1,145)" d="M83.3403 83.2357H79.5988C78.2297 83.2357 77.4544 82.4871 77.4544 81.1641V67.5014L65.1813 81.4289C64.0403 82.7512 63.0366 83.4562 61.5767 83.4562H61.1203C59.5689 83.4562 58.2457 82.7512 58.2457 80.9442V56.6595C58.2457 55.3371 59.0216 54.5876 60.3901 54.5876H64.1316C65.5002 54.5876 66.276 55.3371 66.276 56.6595V70.3222L78.5497 56.3947C79.6898 55.0726 80.6939 54.3674 82.154 54.3674H82.6098C84.1615 54.3674 85.4388 55.0726 85.4388 56.8794V81.1641C85.4388 82.4871 84.7089 83.2357 83.3403 83.2357" fill="#735433"/>
<path transform="matrix(1,0,0,-1,1,145)" d="M116.9668 56.9673 116.2366 59.3915C115.9172 60.2734 115.5067 60.7139 114.8221 60.626 114.4114 60.626 114.0466 60.4054 113.7271 60.4054 113.2251 60.4054 113.1795 60.802 113.1795 61.2431V74.8176C113.1795 76.0961 112.4495 76.845 111.1266 76.845H107.3395C106.0166 76.845 105.2867 76.0961 105.2867 74.8176V64.152C105.2867 61.9923 104.0088 60.4933 101.8641 60.4933 99.7659 60.4933 98.4881 61.9923 98.4881 64.1078V74.8176C98.4881 76.0961 97.7125 76.845 96.3893 76.845H92.6478C91.3249 76.845 90.5494 76.0961 90.5494 74.8176V63.006C90.5494 57.6286 94.3362 54.0147 99.9938 54.0147 103.4158 54.0147 105.5597 55.5574 106.8378 57.7613 107.6134 55.3371 109.6209 54.0147 112.2676 54.0147 113.3167 54.0147 114.7768 54.2347 116.1907 54.896 116.9212 55.2484 117.3776 55.6897 116.9668 56.9673" fill="#735433"/>
<path transform="matrix(1,0,0,-1,1,145)" d="M136.9052 57.5773 135.6276 60.4352C135.2169 61.2723 134.6698 61.8009 133.5285 61.096 133.0265 60.802 132.3422 60.4933 131.658 60.4933 130.244 60.4933 129.1031 61.1989 129.1031 63.3583V71.2919H133.6198C134.9433 71.2919 135.7186 72.0411 135.7186 73.3192V74.8176C135.7186 76.1403 134.9433 76.845 133.6198 76.845H129.1031V82.6191C129.1031 83.9412 128.3729 84.8667 127.004 84.6026L123.3541 83.9852C122.0312 83.7207 121.2551 83.2357 121.2551 81.9581V76.845H119.2479C117.8793 76.845 117.1488 76.1403 117.1488 74.8176V73.3192C117.1488 72.0411 117.8793 71.2919 119.2479 71.2919H121.2551V62.5654C121.2551 56.5268 125.6357 54.0147 130.1984 54.0147 132.4338 54.0147 134.5785 54.5876 135.9924 55.5574 136.586 55.9976 137.4069 56.5194 136.9052 57.5773" fill="#735433"/>
<path transform="matrix(1,0,0,-1,1,145)" d="M157.7106 76.7132C156.7066 77.0216 155.6116 77.1979 154.4255 77.1979 151.414 77.1979 149.2696 76.0079 147.8095 73.9806 146.8057 76.316 144.5247 77.1979 142.1521 77.1979 141.103 77.1979 139.6879 76.9334 138.7301 76.4487 137.7261 75.9634 137.4985 75.3908 137.8176 74.245L138.456 71.3358C138.7301 70.234 139.2778 70.0577 139.6426 70.1016 140.1443 70.1456 140.692 70.4988 141.1483 70.4988 141.4222 70.4988 141.6047 70.278 141.6047 69.8817V56.615C141.6047 55.3371 142.3803 54.5876 143.7032 54.5876H147.4447C148.8135 54.5876 149.5434 55.3371 149.5434 56.615V66.4438C149.5434 69.044 151.0033 70.7627 153.6951 70.7627 154.4255 70.7627 155.338 70.5427 156.0223 70.3222 156.8438 70.043 157.6193 70.3074 157.9842 71.5346L158.8513 74.8176C159.2161 76.0961 158.4862 76.4487 157.7106 76.7132" fill="#735433"/>
<path transform="matrix(1,0,0,-1,1,145)" d="M160.7221 84.8228C160.7221 69.0358 160.7221 100.6299 160.7221 84.8228" fill="#735433"/>
<path transform="matrix(1,0,0,-1,1,145)" d="M168.4329 54.0147C169.7102 54.0147 171.0332 54.1908 172.4933 54.9405 173.2689 55.381 173.6342 55.7337 173.2689 56.9673L172.4477 59.6563C172.0828 60.802 171.5805 61.1104 170.805 60.8905 170.4858 60.802 170.1207 60.7139 169.9384 60.7139 169.4367 60.7139 169.3911 61.0662 169.3911 61.5515V74.8176C169.3911 76.0961 168.6152 76.845 167.292 76.845H163.5506C162.2276 76.845 161.4521 76.0961 161.4521 74.8176V60.8905C161.4521 56.3508 163.8244 54.0147 168.4329 54.0147" fill="#735433"/>
<path transform="matrix(1,0,0,-1,1,145)" d="M167.2744 81.1196C163.1455 80.8577 159.2323 82.7127 157.7279 87.2073 157.7279 87.2073 156.471 90.4343 156.8648 92.9228 156.8648 92.9228 163.2033 93.5677 156.8648 92.9228 163.0545 93.5527 167.1168 86.5315 167.2744 81.1196" fill="#7fcf4f"/>
</g>
</svg>
