<svg xmlns="http://www.w3.org/2000/svg" xmlns:xlink="http://www.w3.org/1999/xlink" xmlns:inkscape="http://www.inkscape.org/namespaces/inkscape" version="1.1" width="218" height="218" viewBox="0 0 218 218">
<g inkscape:groupmode="layer" inkscape:label="Layer 1">
<path transform="matrix(1,0,0,-1,1,217)" d="M107.7225 179.6686C147.318 179.6686 179.4166 147.5816 179.4166 108 179.4166 68.4184 147.318 36.3314 107.7225 36.3314 68.127 36.3314 36.0283 68.4184 36.0283 108 36.0283 147.5816 68.127 179.6686 107.7225 179.6686" fill="#e31f24" fill-rule="evenodd"/>
<path transform="matrix(1,0,0,-1,1,217)" d="M76.049 86.5261C76.049 84.3945 76.8424 83.5067 78.747 83.5067H91.1662C93.0708 83.5067 93.8648 84.3945 93.8648 86.5261V91.3215H89.1425V89.4127C89.1425 88.7905 88.8253 88.4356 88.2694 88.4356H82.1194C81.5644 88.4356 81.2469 88.7905 81.2469 89.4127V112.0141C81.2469 114.1016 80.4535 115.0342 78.5483 115.0342H73.4698V110.1053H75.1762C75.7315 110.1053 76.049 109.7498 76.049 109.1282ZM95.5701 90.0343C95.5701 85.5048 98.8634 82.9738 102.4741 82.9738 107.0371 82.9738 108.5845 86.9703 108.5845 86.9703H108.6642C108.6642 86.9703 108.6239 86.5706 108.6239 85.9929 108.6239 84.6609 109.3385 83.5067 111.2031 83.5067H115.7267V88.2578H114.1393C113.584 88.2578 113.2668 88.6136 113.2668 89.2349V97.672C113.2668 102.7341 111.2828 106.6856 104.5372 106.6856 102.4345 106.6856 97.1184 106.242 97.1184 102.0234V99.6253H101.7998V100.8244C101.7998 102.0677 103.5856 102.3344 104.4975 102.3344 107.0768 102.3344 108.2276 101.1353 108.2276 97.8936V97.7159H107.5924C104.2997 97.7159 95.5701 97.1391 95.5701 90.0343ZM100.6492 90.3005C100.6492 93.4529 104.8147 93.8526 107.4339 93.8526H108.3067V93.3199C108.3067 90.5669 106.4027 87.37 103.7047 87.37 101.641 87.37 100.6492 88.7905 100.6492 90.3005ZM117.7503 94.83C117.7503 87.8139 121.2817 82.9738 126.7571 82.9738 131.3997 82.9738 133.0662 86.6594 133.0662 86.6594H133.1453C133.1453 86.6594 133.1453 86.3039 133.1453 85.8158 133.1453 84.4838 133.8197 83.5067 135.6454 83.5067H140.2872V88.2578H138.74C138.1847 88.2578 137.8675 88.6136 137.8675 89.2349V112.0141C137.8675 114.1016 137.0333 115.0608 135.1689 115.0342L130.3676 114.9633V110.2385H131.9553C132.5106 110.2385 132.8281 109.9273 132.8281 109.2611V105.2651C132.8281 104.5097 132.8672 103.9331 132.8672 103.9331H132.7881C132.7881 103.9331 131.3597 106.6856 126.9556 106.6856 121.5992 106.6856 117.7503 102.0234 117.7503 94.83ZM127.8683 87.7249C124.8925 87.7249 122.8689 90.5221 122.8689 94.83 122.8689 99.3144 125.1703 101.8457 127.948 101.8457 131.3201 101.8457 132.9466 98.382 132.9466 94.8742 132.9466 89.8563 130.4867 87.7249 127.8683 87.7249ZM143.1439 80.4872 141.2002 76.4912C141.2002 76.4912 143.1439 74.1818 146.3187 74.1818 149.3337 74.1818 152.1904 76.0025 153.6191 80.0878L160.88 100.5579C161.1167 101.2243 161.4356 101.357 162.0309 101.357H179.9717V106.1527H159.2135C157.826 106.1527 156.9892 105.5755 156.5155 104.0213L153.0638 92.6986C152.7066 91.5443 152.3891 89.6788 152.3891 89.6788H152.3095C152.3095 89.6788 151.9926 91.5443 151.5954 92.6986L147.6283 104.0213C147.1124 105.5755 146.3978 106.1527 144.9694 106.1527H141.6368V101.357H142.2315C142.7868 101.357 143.0649 101.2241 143.3032 100.5579L150.048 83.5512 149.3736 81.8195C148.6593 79.8653 147.4294 78.9333 146.0404 78.9333 144.3745 78.9333 143.1439 80.4872 143.1439 80.4872" fill="#ffffff"/>
<path transform="matrix(1,0,0,-1,1,217)" d="M55.7056 110.2907H61.5223V122.0581H64.453C66.0963 122.0581 66.7621 121.8356 67.4286 120.5926L71.4691 112.644C72.4901 110.6459 73.5123 110.2907 75.8653 110.2907H78.9293V115.2193H78.3516C77.3753 115.2193 76.6199 115.3083 76.1315 116.2406L73.0675 122.3243C72.4901 123.4791 71.5136 123.9231 71.5136 123.9231V124.0118C72.8456 124.278 76.7531 126.6318 76.7531 132.3159 76.7531 138.2655 72.7115 141.8182 66.9399 141.8182H40.4697V136.8896H55.7056ZM61.5223 127.031V136.8896H66.2295C69.0715 136.8896 70.8032 135.1131 70.8032 132.0043 70.8032 128.8522 69.0715 127.031 66.1408 127.031ZM80.4832 121.614C80.4832 115.1753 85.1457 109.758 92.6504 109.758 98.2896 109.758 101.753 113.1766 101.753 113.1766L99.3994 117.0848C99.3994 117.0848 96.6912 114.5537 93.0501 114.5537 89.6306 114.5537 86.6999 116.6406 86.256 120.6371H101.8868C101.8868 120.6371 102.0197 122.0581 102.0197 122.724 102.0197 128.7187 98.4671 133.4699 91.984 133.4699 85.1899 133.4699 80.4832 128.5855 80.4832 121.614ZM86.4337 124.5447C87.0554 127.3864 89.098 129.1184 91.984 129.1184 94.2931 129.1184 96.1583 127.2535 96.247 124.5447ZM105.2167 121.614C105.2167 114.5982 109.169 109.758 115.2969 109.758 120.492 109.758 122.3572 113.4437 122.3572 113.4437H122.4459C122.4459 113.4437 122.4459 113.0882 122.4459 112.6003 122.4459 111.2681 123.2005 110.2907 125.2431 110.2907H131.3408V115.0421H128.7065C128.086 115.0421 127.7303 115.3973 127.7303 116.0189V138.7981C127.7303 140.8856 126.7977 141.8182 124.7102 141.8182H119.3372V137.0228H121.1136C121.7353 137.0228 122.0905 136.7118 122.0905 136.0454V132.0491C122.0905 131.2937 122.135 130.7171 122.135 130.7171H122.0462C122.0462 130.7171 120.4475 133.4699 115.5186 133.4699 109.5242 133.4699 105.2167 128.8074 105.2167 121.614ZM116.5399 114.5089C113.2095 114.5089 110.9452 117.3064 110.9452 121.614 110.9452 126.0984 113.5205 128.6297 116.6292 128.6297 120.4033 128.6297 122.2243 125.166 122.2243 121.6587 122.2243 116.6406 119.4701 114.5089 116.5399 114.5089" fill="#ffffff"/>
</g>
</svg>
